<svg xmlns="http://www.w3.org/2000/svg" viewBox="0 0 780 670" fill="none" role="img" aria-labelledby="houseTitle houseDesc">
<title id="houseTitle">A brighter home, powered by solar</title><desc id="houseDesc">An original isometric illustration of a modern home with ten rooftop solar panels, battery storage, garden and terrace.</desc>
<defs>
 <linearGradient id="front" x1="0" y1="0" x2="1" y2="1"><stop stop-color="#e7e2cf"/><stop offset="1" stop-color="#c8c5b5"/></linearGradient>
 <linearGradient id="side" x1="0" y1="0" x2="1" y2="1"><stop stop-color="#f6f3e8"/><stop offset="1" stop-color="#e2ddcb"/></linearGradient>
 <linearGradient id="glass" x1="0" y1="0" x2="1" y2="1"><stop stop-color="#8da6a1"/><stop offset=".4" stop-color="#435e59"/><stop offset="1" stop-color="#263c37"/></linearGradient>
 <linearGradient id="roof" x1="0" y1="0" x2="1" y2="1"><stop stop-color="#7d8981"/><stop offset="1" stop-color="#4c5951"/></linearGradient>
 <linearGradient id="panel" x1="0" y1="0" x2=".75" y2="1"><stop stop-color="#233e43"/><stop offset=".6" stop-color="#172d32"/><stop offset="1" stop-color="#3f5960"/></linearGradient>
 <linearGradient id="lawn" x1="0" y1="0" x2="1" y2="1"><stop stop-color="#a9b889"/><stop offset="1" stop-color="#718659"/></linearGradient>
 <radialGradient id="leaf"><stop stop-color="#99ae78"/><stop offset=".65" stop-color="#7b9762"/><stop offset="1" stop-color="#5b764b"/></radialGradient>
 <radialGradient id="leaf2"><stop stop-color="#b3c295"/><stop offset="1" stop-color="#788e62"/></radialGradient>
 <linearGradient id="base" x1="0" y1="0" x2="1" y2="1"><stop stop-color="#f7f3e7"/><stop offset="1" stop-color="#dddace"/></linearGradient>
 <filter id="shadow" x="-60%" y="-100%" width="220%" height="300%"><feGaussianBlur stdDeviation="12"/></filter>
 <filter id="softShadow" x="-40%" y="-40%" width="180%" height="200%"><feGaussianBlur stdDeviation="3"/></filter>
 <style>.window{transition:fill .6s}.night .window{fill:#ebc77a}.night .panel{fill:#26383b}.energy-line{stroke-dasharray:4 10;animation:energy 4s linear infinite}@keyframes energy{to{stroke-dashoffset:-70}}@media(prefers-reduced-motion:reduce){.energy-line{animation:none}}</style>
</defs>
<ellipse cx="407.0" cy="425.84" rx="250" ry="95" fill="#2a3e2c" opacity=".14" filter="url(#shadow)"/>
<polygon points="369.60,213.12 767.40,405.00 407.00,578.84 9.20,386.96" fill="#d5d4c7" />
<polygon points="9.20,377.44 407.00,569.32 407.00,578.84 9.20,386.96" fill="#cfcebf" />
<polygon points="767.40,395.48 407.00,569.32 407.00,578.84 767.40,405.00" fill="#ece8db" />
<polygon points="369.60,203.60 767.40,395.48 407.00,569.32 9.20,377.44" fill="url(#base)" />
<polygon points="367.90,218.84 716.40,386.94 656.90,415.64 374.70,279.52 145.20,390.22 78.90,358.24" fill="url(#lawn)" />
<polygon points="72.10,361.52 342.40,491.90 308.40,508.30 38.10,377.92" fill="url(#lawn)" />
<polyline points="588.90,387.42 546.40,407.92" fill="none" stroke="#d3d0c3" stroke-width="0.55" />
<polyline points="539.60,411.20 497.10,431.70" fill="none" stroke="#d3d0c3" stroke-width="0.55" />
<polyline points="490.30,434.98 447.80,455.48" fill="none" stroke="#d3d0c3" stroke-width="0.55" />
<polyline points="441.00,458.76 398.50,479.26" fill="none" stroke="#d3d0c3" stroke-width="0.55" />
<polyline points="391.70,482.54 349.20,503.04" fill="none" stroke="#d3d0c3" stroke-width="0.55" />
<polyline points="598.76,392.18 556.26,412.68" fill="none" stroke="#d3d0c3" stroke-width="0.55" />
<polyline points="549.46,415.96 506.96,436.46" fill="none" stroke="#d3d0c3" stroke-width="0.55" />
<polyline points="500.16,439.74 457.66,460.24" fill="none" stroke="#d3d0c3" stroke-width="0.55" />
<polyline points="450.86,463.52 408.36,484.02" fill="none" stroke="#d3d0c3" stroke-width="0.55" />
<polyline points="401.56,487.30 359.06,507.80" fill="none" stroke="#d3d0c3" stroke-width="0.55" />
<polyline points="608.62,396.93 566.12,417.43" fill="none" stroke="#d3d0c3" stroke-width="0.55" />
<polyline points="559.32,420.71 516.82,441.21" fill="none" stroke="#d3d0c3" stroke-width="0.55" />
<polyline points="510.02,444.49 467.52,464.99" fill="none" stroke="#d3d0c3" stroke-width="0.55" />
<polyline points="460.72,468.27 418.22,488.77" fill="none" stroke="#d3d0c3" stroke-width="0.55" />
<polyline points="411.42,492.05 368.92,512.55" fill="none" stroke="#d3d0c3" stroke-width="0.55" />
<polyline points="618.48,401.69 575.98,422.19" fill="none" stroke="#d3d0c3" stroke-width="0.55" />
<polyline points="569.18,425.47 526.68,445.97" fill="none" stroke="#d3d0c3" stroke-width="0.55" />
<polyline points="519.88,449.25 477.38,469.75" fill="none" stroke="#d3d0c3" stroke-width="0.55" />
<polyline points="470.58,473.03 428.08,493.53" fill="none" stroke="#d3d0c3" stroke-width="0.55" />
<polyline points="421.28,496.81 378.78,517.31" fill="none" stroke="#d3d0c3" stroke-width="0.55" />
<polyline points="628.34,406.44 585.84,426.94" fill="none" stroke="#d3d0c3" stroke-width="0.55" />
<polyline points="579.04,430.22 536.54,450.72" fill="none" stroke="#d3d0c3" stroke-width="0.55" />
<polyline points="529.74,454.00 487.24,474.50" fill="none" stroke="#d3d0c3" stroke-width="0.55" />
<polyline points="480.44,477.78 437.94,498.28" fill="none" stroke="#d3d0c3" stroke-width="0.55" />
<polyline points="431.14,501.56 388.64,522.06" fill="none" stroke="#d3d0c3" stroke-width="0.55" />
<polyline points="638.20,411.20 595.70,431.70" fill="none" stroke="#d3d0c3" stroke-width="0.55" />
<polyline points="588.90,434.98 546.40,455.48" fill="none" stroke="#d3d0c3" stroke-width="0.55" />
<polyline points="539.60,458.76 497.10,479.26" fill="none" stroke="#d3d0c3" stroke-width="0.55" />
<polyline points="490.30,482.54 447.80,503.04" fill="none" stroke="#d3d0c3" stroke-width="0.55" />
<polyline points="441.00,506.32 398.50,526.82" fill="none" stroke="#d3d0c3" stroke-width="0.55" />
<polyline points="648.06,415.96 605.56,436.46" fill="none" stroke="#d3d0c3" stroke-width="0.55" />
<polyline points="598.76,439.74 556.26,460.24" fill="none" stroke="#d3d0c3" stroke-width="0.55" />
<polyline points="549.46,463.52 506.96,484.02" fill="none" stroke="#d3d0c3" stroke-width="0.55" />
<polyline points="500.16,487.30 457.66,507.80" fill="none" stroke="#d3d0c3" stroke-width="0.55" />
<polyline points="450.86,511.08 408.36,531.58" fill="none" stroke="#d3d0c3" stroke-width="0.55" />
<polyline points="657.92,420.71 615.42,441.21" fill="none" stroke="#d3d0c3" stroke-width="0.55" />
<polyline points="608.62,444.49 566.12,464.99" fill="none" stroke="#d3d0c3" stroke-width="0.55" />
<polyline points="559.32,468.27 516.82,488.77" fill="none" stroke="#d3d0c3" stroke-width="0.55" />
<polyline points="510.02,492.05 467.52,512.55" fill="none" stroke="#d3d0c3" stroke-width="0.55" />
<polyline points="460.72,515.83 418.22,536.33" fill="none" stroke="#d3d0c3" stroke-width="0.55" />
<polyline points="667.78,425.47 625.28,445.97" fill="none" stroke="#d3d0c3" stroke-width="0.55" />
<polyline points="618.48,449.25 575.98,469.75" fill="none" stroke="#d3d0c3" stroke-width="0.55" />
<polyline points="569.18,473.03 526.68,493.53" fill="none" stroke="#d3d0c3" stroke-width="0.55" />
<polyline points="519.88,496.81 477.38,517.31" fill="none" stroke="#d3d0c3" stroke-width="0.55" />
<polyline points="470.58,520.59 428.08,541.09" fill="none" stroke="#d3d0c3" stroke-width="0.55" />
<polyline points="592.30,385.78 677.30,426.78" fill="none" stroke="#d0cdc0" stroke-width="0.6" />
<polyline points="543.00,409.56 628.00,450.56" fill="none" stroke="#d0cdc0" stroke-width="0.6" />
<polyline points="493.70,433.34 578.70,474.34" fill="none" stroke="#d0cdc0" stroke-width="0.6" />
<polyline points="444.40,457.12 529.40,498.12" fill="none" stroke="#d0cdc0" stroke-width="0.6" />
<polyline points="395.10,480.90 480.10,521.90" fill="none" stroke="#d0cdc0" stroke-width="0.6" />
<polyline points="345.80,504.68 430.80,545.68" fill="none" stroke="#d0cdc0" stroke-width="0.6" />
<polygon points="390.00,282.88 594.00,381.28 611.00,455.08 461.40,527.24 322.00,479.68 220.00,364.88" fill="#253623" opacity=".11" filter="url(#softShadow)"/>
<ellipse cx="359.4" cy="252.12" rx="32.3" ry="12.16" fill="#354831" opacity=".16" filter="url(#softShadow)"/>
<polyline points="366.20,240.24 366.20,120.56" fill="none" stroke="#77765a" stroke-width="4.5" />
<polyline points="366.20,167.07 353.28,131.46" fill="none" stroke="#77765a" stroke-width="2" />
<circle cx="347.96" cy="128.56" r="24.32" fill="url(#leaf)"/>
<circle cx="383.3" cy="124.56" r="27.36" fill="url(#leaf)"/>
<circle cx="366.2" cy="101.56" r="28.12" fill="url(#leaf2)"/>
<circle cx="361.64" cy="118.28" r="31.54" fill="url(#leaf)"/>
<ellipse cx="662.0" cy="399.71999999999997" rx="34.0" ry="12.8" fill="#354831" opacity=".16" filter="url(#softShadow)"/>
<polyline points="668.80,387.84 668.80,278.36" fill="none" stroke="#77765a" stroke-width="4.5" />
<polyline points="668.80,321.00 655.88,287.84" fill="none" stroke="#77765a" stroke-width="2" />
<circle cx="649.5999999999999" cy="286.36" r="25.6" fill="url(#leaf)"/>
<circle cx="686.8" cy="282.36" r="28.799999999999997" fill="url(#leaf)"/>
<circle cx="668.8" cy="258.36" r="29.6" fill="url(#leaf2)"/>
<circle cx="664.0" cy="275.96000000000004" r="33.199999999999996" fill="url(#leaf)"/>
<polygon points="390.00,285.60 594.00,384.00 424.00,466.00 220.00,367.60" fill="#b2b3a7" />
<polygon points="220.00,367.60 424.00,466.00 424.00,341.90 220.00,243.50" fill="url(#front)" />
<polygon points="594.00,384.00 424.00,466.00 424.00,341.90 509.00,217.60 594.00,259.90" fill="url(#side)" />
<polyline points="219.90,361.18 423.22,459.25" fill="none" stroke="#bdbdaf" stroke-width="0.65" />
<polyline points="219.90,349.28 423.22,447.35" fill="none" stroke="#bdbdaf" stroke-width="0.65" />
<polyline points="219.90,337.38 423.22,435.45" fill="none" stroke="#bdbdaf" stroke-width="0.65" />
<polyline points="219.90,325.48 423.22,423.55" fill="none" stroke="#bdbdaf" stroke-width="0.65" />
<polyline points="219.90,313.58 423.22,411.65" fill="none" stroke="#bdbdaf" stroke-width="0.65" />
<polyline points="219.90,301.68 423.22,399.75" fill="none" stroke="#bdbdaf" stroke-width="0.65" />
<polyline points="219.90,289.78 423.22,387.85" fill="none" stroke="#bdbdaf" stroke-width="0.65" />
<polyline points="219.90,277.88 423.22,375.95" fill="none" stroke="#bdbdaf" stroke-width="0.65" />
<polyline points="219.90,265.98 423.22,364.05" fill="none" stroke="#bdbdaf" stroke-width="0.65" />
<polyline points="219.90,254.08 423.22,352.15" fill="none" stroke="#bdbdaf" stroke-width="0.65" />
<polygon points="237.78,364.14 310.20,399.07 310.20,308.97 237.78,274.04" fill="#293f37" />
<polygon points="240.74,362.60 306.36,394.25 306.36,311.29 240.74,279.64" fill="url(#glass)" class="window"/>
<polyline points="273.21,381.31 273.21,292.91" fill="none" stroke="#253b33" stroke-width="4" />
<polygon points="241.93,282.74 255.53,289.30 303.13,362.92 303.13,378.90" fill="#e7f3e9" opacity=".11"/>
<polyline points="234.96,364.87 310.10,401.12" fill="none" stroke="#adad9b" stroke-width="4" />
<polygon points="322.78,405.14 405.06,444.83 405.06,354.73 322.78,315.04" fill="#293f37" />
<polygon points="325.74,403.60 401.22,440.00 401.22,357.04 325.74,320.64" fill="url(#glass)" class="window"/>
<polyline points="363.14,424.68 363.14,336.28" fill="none" stroke="#253b33" stroke-width="4" />
<polygon points="326.93,323.74 340.53,330.30 397.99,408.68 397.99,424.66" fill="#e7f3e9" opacity=".11"/>
<polyline points="319.96,405.87 404.96,446.87" fill="none" stroke="#adad9b" stroke-width="4" />
<polygon points="585.98,383.23 523.42,413.41 523.42,299.51 585.98,269.33" fill="#aa9d7b" />
<polyline points="585.67,382.72 585.67,269.84" fill="none" stroke="#857a60" stroke-width="1.8" />
<polyline points="581.25,384.85 581.25,271.97" fill="none" stroke="#857a60" stroke-width="1.8" />
<polyline points="576.83,386.98 576.83,274.10" fill="none" stroke="#857a60" stroke-width="1.8" />
<polyline points="572.41,389.11 572.41,276.23" fill="none" stroke="#857a60" stroke-width="1.8" />
<polyline points="567.99,391.25 567.99,278.37" fill="none" stroke="#857a60" stroke-width="1.8" />
<polyline points="563.57,393.38 563.57,280.50" fill="none" stroke="#857a60" stroke-width="1.8" />
<polyline points="559.15,395.51 559.15,282.63" fill="none" stroke="#857a60" stroke-width="1.8" />
<polyline points="554.73,397.64 554.73,284.76" fill="none" stroke="#857a60" stroke-width="1.8" />
<polyline points="550.31,399.77 550.31,286.89" fill="none" stroke="#857a60" stroke-width="1.8" />
<polyline points="545.89,401.91 545.89,289.03" fill="none" stroke="#857a60" stroke-width="1.8" />
<polyline points="541.47,404.04 541.47,291.16" fill="none" stroke="#857a60" stroke-width="1.8" />
<polyline points="537.05,406.17 537.05,293.29" fill="none" stroke="#857a60" stroke-width="1.8" />
<polyline points="532.63,408.30 532.63,295.42" fill="none" stroke="#857a60" stroke-width="1.8" />
<polyline points="528.21,410.43 528.21,297.55" fill="none" stroke="#857a60" stroke-width="1.8" />
<polygon points="577.68,371.08 535.52,391.42 535.52,315.60 577.68,295.26" fill="#273c34" />
<polygon points="574.79,369.23 539.43,386.29 539.43,317.95 574.79,300.89" fill="url(#glass)" class="window"/>
<polyline points="557.62,380.38 557.62,307.96" fill="none" stroke="#263b32" stroke-width="3" />
<polygon points="511.72,420.59 474.32,438.63 474.32,347.85 511.72,329.81" fill="#6b7361" />
<polygon points="508.32,418.14 478.40,432.57 478.40,349.95 508.32,335.52" fill="#364b3f" />
<polyline points="486.22,397.84 486.22,383.22" fill="none" stroke="#d4d2b8" stroke-width="2" />
<polygon points="528.21,293.80 492.51,311.02 492.51,276.00 528.21,258.78" fill="#34493e" />
<polygon points="524.64,291.94 497.10,305.22 497.10,278.36 524.64,265.08" fill="url(#glass)" class="window"/>
<polygon points="391.70,149.48 616.78,258.05 519.88,216.05 294.80,107.48" fill="#778378" stroke="#556358" stroke-width="1" stroke-linejoin="round" />
<polygon points="294.80,107.48 519.88,216.05 422.98,351.53 197.90,242.96" fill="url(#roof)" stroke="#46564a" stroke-width="1" stroke-linejoin="round" />
<polyline points="299.90,109.43 203.00,245.08" fill="none" stroke="#97a094" stroke-width="0.65" opacity=".5"/>
<polyline points="396.80,151.60 299.90,109.43" fill="none" stroke="#a7afa0" stroke-width="0.6" opacity=".38"/>
<polyline points="310.44,114.51 213.54,250.16" fill="none" stroke="#97a094" stroke-width="0.65" opacity=".5"/>
<polyline points="407.34,156.68 310.44,114.51" fill="none" stroke="#a7afa0" stroke-width="0.6" opacity=".38"/>
<polyline points="320.98,119.60 224.08,255.25" fill="none" stroke="#97a094" stroke-width="0.65" opacity=".5"/>
<polyline points="417.88,161.77 320.98,119.60" fill="none" stroke="#a7afa0" stroke-width="0.6" opacity=".38"/>
<polyline points="331.52,124.68 234.62,260.33" fill="none" stroke="#97a094" stroke-width="0.65" opacity=".5"/>
<polyline points="428.42,166.85 331.52,124.68" fill="none" stroke="#a7afa0" stroke-width="0.6" opacity=".38"/>
<polyline points="342.06,129.77 245.16,265.42" fill="none" stroke="#97a094" stroke-width="0.65" opacity=".5"/>
<polyline points="438.96,171.94 342.06,129.77" fill="none" stroke="#a7afa0" stroke-width="0.6" opacity=".38"/>
<polyline points="352.60,134.85 255.70,270.50" fill="none" stroke="#97a094" stroke-width="0.65" opacity=".5"/>
<polyline points="449.50,177.02 352.60,134.85" fill="none" stroke="#a7afa0" stroke-width="0.6" opacity=".38"/>
<polyline points="363.14,139.93 266.24,275.58" fill="none" stroke="#97a094" stroke-width="0.65" opacity=".5"/>
<polyline points="460.04,182.10 363.14,139.93" fill="none" stroke="#a7afa0" stroke-width="0.6" opacity=".38"/>
<polyline points="373.68,145.02 276.78,280.67" fill="none" stroke="#97a094" stroke-width="0.65" opacity=".5"/>
<polyline points="470.58,187.19 373.68,145.02" fill="none" stroke="#a7afa0" stroke-width="0.6" opacity=".38"/>
<polyline points="384.22,150.10 287.32,285.75" fill="none" stroke="#97a094" stroke-width="0.65" opacity=".5"/>
<polyline points="481.12,192.27 384.22,150.10" fill="none" stroke="#a7afa0" stroke-width="0.6" opacity=".38"/>
<polyline points="394.76,155.19 297.86,290.84" fill="none" stroke="#97a094" stroke-width="0.65" opacity=".5"/>
<polyline points="491.66,197.36 394.76,155.19" fill="none" stroke="#a7afa0" stroke-width="0.6" opacity=".38"/>
<polyline points="405.30,160.27 308.40,295.92" fill="none" stroke="#97a094" stroke-width="0.65" opacity=".5"/>
<polyline points="502.20,202.44 405.30,160.27" fill="none" stroke="#a7afa0" stroke-width="0.6" opacity=".38"/>
<polyline points="415.84,165.35 318.94,301.00" fill="none" stroke="#97a094" stroke-width="0.65" opacity=".5"/>
<polyline points="512.74,207.52 415.84,165.35" fill="none" stroke="#a7afa0" stroke-width="0.6" opacity=".38"/>
<polyline points="426.38,170.44 329.48,306.09" fill="none" stroke="#97a094" stroke-width="0.65" opacity=".5"/>
<polyline points="523.28,212.61 426.38,170.44" fill="none" stroke="#a7afa0" stroke-width="0.6" opacity=".38"/>
<polyline points="436.92,175.52 340.02,311.17" fill="none" stroke="#97a094" stroke-width="0.65" opacity=".5"/>
<polyline points="533.82,217.69 436.92,175.52" fill="none" stroke="#a7afa0" stroke-width="0.6" opacity=".38"/>
<polyline points="447.46,180.61 350.56,316.26" fill="none" stroke="#97a094" stroke-width="0.65" opacity=".5"/>
<polyline points="544.36,222.78 447.46,180.61" fill="none" stroke="#a7afa0" stroke-width="0.6" opacity=".38"/>
<polyline points="458.00,185.69 361.10,321.34" fill="none" stroke="#97a094" stroke-width="0.65" opacity=".5"/>
<polyline points="554.90,227.86 458.00,185.69" fill="none" stroke="#a7afa0" stroke-width="0.6" opacity=".38"/>
<polyline points="468.54,190.77 371.64,326.42" fill="none" stroke="#97a094" stroke-width="0.65" opacity=".5"/>
<polyline points="565.44,232.94 468.54,190.77" fill="none" stroke="#a7afa0" stroke-width="0.6" opacity=".38"/>
<polyline points="479.08,195.86 382.18,331.51" fill="none" stroke="#97a094" stroke-width="0.65" opacity=".5"/>
<polyline points="575.98,238.03 479.08,195.86" fill="none" stroke="#a7afa0" stroke-width="0.6" opacity=".38"/>
<polyline points="489.62,200.94 392.72,336.59" fill="none" stroke="#97a094" stroke-width="0.65" opacity=".5"/>
<polyline points="586.52,243.11 489.62,200.94" fill="none" stroke="#a7afa0" stroke-width="0.6" opacity=".38"/>
<polyline points="500.16,206.03 403.26,341.68" fill="none" stroke="#97a094" stroke-width="0.65" opacity=".5"/>
<polyline points="597.06,248.20 500.16,206.03" fill="none" stroke="#a7afa0" stroke-width="0.6" opacity=".38"/>
<polyline points="510.70,211.11 413.80,346.76" fill="none" stroke="#97a094" stroke-width="0.65" opacity=".5"/>
<polyline points="607.60,253.28 510.70,211.11" fill="none" stroke="#a7afa0" stroke-width="0.6" opacity=".38"/>
<polyline points="293.44,106.14 521.24,216.02" fill="none" stroke="#c0c5b5" stroke-width="3" />
<polyline points="196.54,243.30 423.32,352.69" fill="none" stroke="#465448" stroke-width="5" />
<polyline points="618.48,258.55 520.90,216.54 422.98,352.85" fill="none" stroke="#596453" stroke-width="3.5" />
<polygon points="298.88,124.55 334.07,141.52 300.75,188.11 265.56,171.14" fill="url(#panel)" stroke="#a0b1af" stroke-width="0.9" stroke-linejoin="round" class="panel"/>
<polyline points="307.68,128.66 274.36,175.24" fill="none" stroke="#819693" stroke-width="0.36" opacity=".58"/>
<polyline points="316.48,132.90 283.16,179.49" fill="none" stroke="#819693" stroke-width="0.36" opacity=".58"/>
<polyline points="325.27,137.14 291.95,183.73" fill="none" stroke="#819693" stroke-width="0.36" opacity=".58"/>
<polyline points="294.12,131.07 329.31,148.04" fill="none" stroke="#8b9e98" stroke-width="0.34" opacity=".5"/>
<polyline points="289.36,137.72 324.55,154.70" fill="none" stroke="#8b9e98" stroke-width="0.34" opacity=".5"/>
<polyline points="284.60,144.38 319.79,161.35" fill="none" stroke="#8b9e98" stroke-width="0.34" opacity=".5"/>
<polyline points="279.84,151.03 315.03,168.01" fill="none" stroke="#8b9e98" stroke-width="0.34" opacity=".5"/>
<polyline points="275.08,157.69 310.27,174.66" fill="none" stroke="#8b9e98" stroke-width="0.34" opacity=".5"/>
<polyline points="270.32,164.34 305.51,181.32" fill="none" stroke="#8b9e98" stroke-width="0.34" opacity=".5"/>
<polygon points="298.88,125.69 310.10,131.10 300.75,186.69 291.57,182.27" fill="#e0f0e1" opacity=".045"/>
<polygon points="337.64,143.25 372.83,160.22 339.51,206.81 304.32,189.83" fill="url(#panel)" stroke="#a0b1af" stroke-width="0.9" stroke-linejoin="round" class="panel"/>
<polyline points="346.44,147.35 313.12,193.94" fill="none" stroke="#819693" stroke-width="0.36" opacity=".58"/>
<polyline points="355.24,151.60 321.92,198.18" fill="none" stroke="#819693" stroke-width="0.36" opacity=".58"/>
<polyline points="364.03,155.84 330.71,202.43" fill="none" stroke="#819693" stroke-width="0.36" opacity=".58"/>
<polyline points="332.88,149.76 368.07,166.74" fill="none" stroke="#8b9e98" stroke-width="0.34" opacity=".5"/>
<polyline points="328.12,156.42 363.31,173.39" fill="none" stroke="#8b9e98" stroke-width="0.34" opacity=".5"/>
<polyline points="323.36,163.07 358.55,180.05" fill="none" stroke="#8b9e98" stroke-width="0.34" opacity=".5"/>
<polyline points="318.60,169.73 353.79,186.70" fill="none" stroke="#8b9e98" stroke-width="0.34" opacity=".5"/>
<polyline points="313.84,176.38 349.03,193.36" fill="none" stroke="#8b9e98" stroke-width="0.34" opacity=".5"/>
<polyline points="309.08,183.04 344.27,200.01" fill="none" stroke="#8b9e98" stroke-width="0.34" opacity=".5"/>
<polygon points="337.64,144.39 348.86,149.80 339.51,205.39 330.33,200.96" fill="#e0f0e1" opacity=".045"/>
<polygon points="376.40,161.94 411.59,178.92 378.27,225.50 343.08,208.53" fill="url(#panel)" stroke="#a0b1af" stroke-width="0.9" stroke-linejoin="round" class="panel"/>
<polyline points="385.20,166.05 351.88,212.63" fill="none" stroke="#819693" stroke-width="0.36" opacity=".58"/>
<polyline points="394.00,170.29 360.68,216.88" fill="none" stroke="#819693" stroke-width="0.36" opacity=".58"/>
<polyline points="402.79,174.54 369.47,221.12" fill="none" stroke="#819693" stroke-width="0.36" opacity=".58"/>
<polyline points="371.64,168.46 406.83,185.43" fill="none" stroke="#8b9e98" stroke-width="0.34" opacity=".5"/>
<polyline points="366.88,175.12 402.07,192.09" fill="none" stroke="#8b9e98" stroke-width="0.34" opacity=".5"/>
<polyline points="362.12,181.77 397.31,198.74" fill="none" stroke="#8b9e98" stroke-width="0.34" opacity=".5"/>
<polyline points="357.36,188.43 392.55,205.40" fill="none" stroke="#8b9e98" stroke-width="0.34" opacity=".5"/>
<polyline points="352.60,195.08 387.79,212.05" fill="none" stroke="#8b9e98" stroke-width="0.34" opacity=".5"/>
<polyline points="347.84,201.74 383.03,218.71" fill="none" stroke="#8b9e98" stroke-width="0.34" opacity=".5"/>
<polygon points="376.40,163.08 387.62,168.50 378.27,224.09 369.09,219.66" fill="#e0f0e1" opacity=".045"/>
<polygon points="415.16,180.64 450.35,197.61 417.03,244.20 381.84,227.22" fill="url(#panel)" stroke="#a0b1af" stroke-width="0.9" stroke-linejoin="round" class="panel"/>
<polyline points="423.96,184.74 390.64,231.33" fill="none" stroke="#819693" stroke-width="0.36" opacity=".58"/>
<polyline points="432.75,188.99 399.44,235.57" fill="none" stroke="#819693" stroke-width="0.36" opacity=".58"/>
<polyline points="441.55,193.23 408.23,239.82" fill="none" stroke="#819693" stroke-width="0.36" opacity=".58"/>
<polyline points="410.40,187.16 445.59,204.13" fill="none" stroke="#8b9e98" stroke-width="0.34" opacity=".5"/>
<polyline points="405.64,193.81 440.83,210.79" fill="none" stroke="#8b9e98" stroke-width="0.34" opacity=".5"/>
<polyline points="400.88,200.47 436.07,217.44" fill="none" stroke="#8b9e98" stroke-width="0.34" opacity=".5"/>
<polyline points="396.12,207.12 431.31,224.10" fill="none" stroke="#8b9e98" stroke-width="0.34" opacity=".5"/>
<polyline points="391.36,213.78 426.55,230.75" fill="none" stroke="#8b9e98" stroke-width="0.34" opacity=".5"/>
<polyline points="386.60,220.43 421.79,237.41" fill="none" stroke="#8b9e98" stroke-width="0.34" opacity=".5"/>
<polygon points="415.16,181.78 426.38,187.19 417.03,242.78 407.85,238.35" fill="#e0f0e1" opacity=".045"/>
<polygon points="453.92,199.33 489.11,216.31 455.79,262.89 420.60,245.92" fill="url(#panel)" stroke="#a0b1af" stroke-width="0.9" stroke-linejoin="round" class="panel"/>
<polyline points="462.72,203.44 429.40,250.03" fill="none" stroke="#819693" stroke-width="0.36" opacity=".58"/>
<polyline points="471.51,207.68 438.19,254.27" fill="none" stroke="#819693" stroke-width="0.36" opacity=".58"/>
<polyline points="480.31,211.93 446.99,258.51" fill="none" stroke="#819693" stroke-width="0.36" opacity=".58"/>
<polyline points="449.16,205.85 484.35,222.83" fill="none" stroke="#8b9e98" stroke-width="0.34" opacity=".5"/>
<polyline points="444.40,212.51 479.59,229.48" fill="none" stroke="#8b9e98" stroke-width="0.34" opacity=".5"/>
<polyline points="439.64,219.16 474.83,236.14" fill="none" stroke="#8b9e98" stroke-width="0.34" opacity=".5"/>
<polyline points="434.88,225.82 470.07,242.79" fill="none" stroke="#8b9e98" stroke-width="0.34" opacity=".5"/>
<polyline points="430.12,232.47 465.31,249.45" fill="none" stroke="#8b9e98" stroke-width="0.34" opacity=".5"/>
<polyline points="425.36,239.13 460.55,256.10" fill="none" stroke="#8b9e98" stroke-width="0.34" opacity=".5"/>
<polygon points="453.92,200.48 465.14,205.89 455.79,261.48 446.61,257.05" fill="#e0f0e1" opacity=".045"/>
<polygon points="261.31,177.08 296.50,194.05 263.18,240.64 227.99,223.66" fill="url(#panel)" stroke="#a0b1af" stroke-width="0.9" stroke-linejoin="round" class="panel"/>
<polyline points="270.11,181.18 236.79,227.77" fill="none" stroke="#819693" stroke-width="0.36" opacity=".58"/>
<polyline points="278.91,185.43 245.59,232.01" fill="none" stroke="#819693" stroke-width="0.36" opacity=".58"/>
<polyline points="287.70,189.67 254.38,236.26" fill="none" stroke="#819693" stroke-width="0.36" opacity=".58"/>
<polyline points="256.55,183.60 291.74,200.57" fill="none" stroke="#8b9e98" stroke-width="0.34" opacity=".5"/>
<polyline points="251.79,190.25 286.98,207.23" fill="none" stroke="#8b9e98" stroke-width="0.34" opacity=".5"/>
<polyline points="247.03,196.91 282.22,213.88" fill="none" stroke="#8b9e98" stroke-width="0.34" opacity=".5"/>
<polyline points="242.27,203.56 277.46,220.54" fill="none" stroke="#8b9e98" stroke-width="0.34" opacity=".5"/>
<polyline points="237.51,210.22 272.70,227.19" fill="none" stroke="#8b9e98" stroke-width="0.34" opacity=".5"/>
<polyline points="232.75,216.87 267.94,233.85" fill="none" stroke="#8b9e98" stroke-width="0.34" opacity=".5"/>
<polygon points="261.31,178.22 272.53,183.63 263.18,239.22 254.00,234.79" fill="#e0f0e1" opacity=".045"/>
<polygon points="300.07,195.77 335.26,212.75 301.94,259.33 266.75,242.36" fill="url(#panel)" stroke="#a0b1af" stroke-width="0.9" stroke-linejoin="round" class="panel"/>
<polyline points="308.87,199.88 275.55,246.47" fill="none" stroke="#819693" stroke-width="0.36" opacity=".58"/>
<polyline points="317.67,204.12 284.35,250.71" fill="none" stroke="#819693" stroke-width="0.36" opacity=".58"/>
<polyline points="326.46,208.37 293.14,254.95" fill="none" stroke="#819693" stroke-width="0.36" opacity=".58"/>
<polyline points="295.31,202.29 330.50,219.27" fill="none" stroke="#8b9e98" stroke-width="0.34" opacity=".5"/>
<polyline points="290.55,208.95 325.74,225.92" fill="none" stroke="#8b9e98" stroke-width="0.34" opacity=".5"/>
<polyline points="285.79,215.60 320.98,232.58" fill="none" stroke="#8b9e98" stroke-width="0.34" opacity=".5"/>
<polyline points="281.03,222.26 316.22,239.23" fill="none" stroke="#8b9e98" stroke-width="0.34" opacity=".5"/>
<polyline points="276.27,228.91 311.46,245.89" fill="none" stroke="#8b9e98" stroke-width="0.34" opacity=".5"/>
<polyline points="271.51,235.57 306.70,252.54" fill="none" stroke="#8b9e98" stroke-width="0.34" opacity=".5"/>
<polygon points="300.07,196.92 311.29,202.33 301.94,257.92 292.76,253.49" fill="#e0f0e1" opacity=".045"/>
<polygon points="338.83,214.47 374.02,231.44 340.70,278.03 305.51,261.06" fill="url(#panel)" stroke="#a0b1af" stroke-width="0.9" stroke-linejoin="round" class="panel"/>
<polyline points="347.63,218.58 314.31,265.16" fill="none" stroke="#819693" stroke-width="0.36" opacity=".58"/>
<polyline points="356.43,222.82 323.11,269.41" fill="none" stroke="#819693" stroke-width="0.36" opacity=".58"/>
<polyline points="365.22,227.06 331.90,273.65" fill="none" stroke="#819693" stroke-width="0.36" opacity=".58"/>
<polyline points="334.07,220.99 369.26,237.96" fill="none" stroke="#8b9e98" stroke-width="0.34" opacity=".5"/>
<polyline points="329.31,227.64 364.50,244.62" fill="none" stroke="#8b9e98" stroke-width="0.34" opacity=".5"/>
<polyline points="324.55,234.30 359.74,251.27" fill="none" stroke="#8b9e98" stroke-width="0.34" opacity=".5"/>
<polyline points="319.79,240.95 354.98,257.93" fill="none" stroke="#8b9e98" stroke-width="0.34" opacity=".5"/>
<polyline points="315.03,247.61 350.22,264.58" fill="none" stroke="#8b9e98" stroke-width="0.34" opacity=".5"/>
<polyline points="310.27,254.26 345.46,271.24" fill="none" stroke="#8b9e98" stroke-width="0.34" opacity=".5"/>
<polygon points="338.83,215.61 350.05,221.02 340.70,276.61 331.52,272.19" fill="#e0f0e1" opacity=".045"/>
<polygon points="377.59,233.17 412.78,250.14 379.46,296.73 344.27,279.75" fill="url(#panel)" stroke="#a0b1af" stroke-width="0.9" stroke-linejoin="round" class="panel"/>
<polyline points="386.39,237.27 353.07,283.86" fill="none" stroke="#819693" stroke-width="0.36" opacity=".58"/>
<polyline points="395.19,241.52 361.87,288.10" fill="none" stroke="#819693" stroke-width="0.36" opacity=".58"/>
<polyline points="403.98,245.76 370.66,292.35" fill="none" stroke="#819693" stroke-width="0.36" opacity=".58"/>
<polyline points="372.83,239.68 408.02,256.66" fill="none" stroke="#8b9e98" stroke-width="0.34" opacity=".5"/>
<polyline points="368.07,246.34 403.26,263.31" fill="none" stroke="#8b9e98" stroke-width="0.34" opacity=".5"/>
<polyline points="363.31,252.99 398.50,269.97" fill="none" stroke="#8b9e98" stroke-width="0.34" opacity=".5"/>
<polyline points="358.55,259.65 393.74,276.62" fill="none" stroke="#8b9e98" stroke-width="0.34" opacity=".5"/>
<polyline points="353.79,266.31 388.98,283.28" fill="none" stroke="#8b9e98" stroke-width="0.34" opacity=".5"/>
<polyline points="349.03,272.96 384.22,289.93" fill="none" stroke="#8b9e98" stroke-width="0.34" opacity=".5"/>
<polygon points="377.59,234.31 388.81,239.72 379.46,295.31 370.28,290.88" fill="#e0f0e1" opacity=".045"/>
<polygon points="416.35,251.86 451.54,268.84 418.22,315.42 383.03,298.45" fill="url(#panel)" stroke="#a0b1af" stroke-width="0.9" stroke-linejoin="round" class="panel"/>
<polyline points="425.15,255.97 391.83,302.55" fill="none" stroke="#819693" stroke-width="0.36" opacity=".58"/>
<polyline points="433.94,260.21 400.62,306.80" fill="none" stroke="#819693" stroke-width="0.36" opacity=".58"/>
<polyline points="442.74,264.46 409.42,311.04" fill="none" stroke="#819693" stroke-width="0.36" opacity=".58"/>
<polyline points="411.59,258.38 446.78,275.35" fill="none" stroke="#8b9e98" stroke-width="0.34" opacity=".5"/>
<polyline points="406.83,265.04 442.02,282.01" fill="none" stroke="#8b9e98" stroke-width="0.34" opacity=".5"/>
<polyline points="402.07,271.69 437.26,288.66" fill="none" stroke="#8b9e98" stroke-width="0.34" opacity=".5"/>
<polyline points="397.31,278.35 432.50,295.32" fill="none" stroke="#8b9e98" stroke-width="0.34" opacity=".5"/>
<polyline points="392.55,285.00 427.74,301.98" fill="none" stroke="#8b9e98" stroke-width="0.34" opacity=".5"/>
<polyline points="387.79,291.66 422.98,308.63" fill="none" stroke="#8b9e98" stroke-width="0.34" opacity=".5"/>
<polygon points="416.35,253.00 427.57,258.42 418.22,314.01 409.04,309.58" fill="#e0f0e1" opacity=".045"/>
<polyline points="420.60,348.01 420.60,460.89" fill="none" stroke="#61715d" stroke-width="3" />
<polygon points="459.36,446.14 469.56,451.06 443.04,463.85 432.84,458.93" fill="#959f90" />
<polygon points="469.56,450.38 443.04,463.17 443.04,388.03 469.56,375.24" fill="#f1f3e7" stroke="#d7dfcf" stroke-width="0.75" stroke-linejoin="round" />
<polygon points="432.84,458.25 443.04,463.17 443.04,388.03 432.84,383.11" fill="#d1d9c9" />
<polygon points="459.36,370.32 469.56,375.24 443.04,388.03 432.84,383.11" fill="#fffef5" />
<polyline points="467.18,395.74 447.46,405.26" fill="none" stroke="#a7ce62" stroke-width="3" />
<polyline points="467.18,428.38 447.46,437.90" fill="none" stroke="#d4decd" stroke-width="0.7" />
<polyline points="467.18,421.24 447.46,430.76" fill="none" stroke="#d4decd" stroke-width="0.7" />
<polygon points="223.06,371.30 407.68,460.35 350.22,488.07 165.60,399.02" fill="#bdad8c" />
<polyline points="222.04,371.77 405.30,460.16" fill="none" stroke="#a19275" stroke-width="0.8" />
<polyline points="216.60,374.39 399.86,462.79" fill="none" stroke="#a19275" stroke-width="0.8" />
<polyline points="211.16,377.02 394.42,465.41" fill="none" stroke="#a19275" stroke-width="0.8" />
<polyline points="205.72,379.64 388.98,468.04" fill="none" stroke="#a19275" stroke-width="0.8" />
<polyline points="200.28,382.26 383.54,470.66" fill="none" stroke="#a19275" stroke-width="0.8" />
<polyline points="194.84,384.89 378.10,473.28" fill="none" stroke="#a19275" stroke-width="0.8" />
<polyline points="189.40,387.51 372.66,475.91" fill="none" stroke="#a19275" stroke-width="0.8" />
<polyline points="183.96,390.14 367.22,478.53" fill="none" stroke="#a19275" stroke-width="0.8" />
<polyline points="178.52,392.76 361.78,481.16" fill="none" stroke="#a19275" stroke-width="0.8" />
<polyline points="173.08,395.38 356.34,483.78" fill="none" stroke="#a19275" stroke-width="0.8" />
<polyline points="167.64,398.01 350.90,486.40" fill="none" stroke="#a19275" stroke-width="0.8" />
<polyline points="280.86,428.32 280.86,413.02" fill="none" stroke="#6c7156" stroke-width="2.3" />
<ellipse cx="280.85999999999996" cy="412.344" rx="10" ry="5" fill="#ded8b7" />
<polyline points="317.58,446.04 317.58,430.74" fill="none" stroke="#6c7156" stroke-width="2.3" />
<ellipse cx="317.58" cy="430.056" rx="10" ry="5" fill="#ded8b7" />
<polyline points="300.58,436.52 300.58,409.32" fill="none" stroke="#8b8d73" stroke-width="3" />
<ellipse cx="300.58" cy="408.304" rx="26" ry="12.5" fill="#ede6cb" />
<ellipse cx="204.70000000000002" cy="407.09999999999997" rx="10.450000000000001" ry="4.4" fill="#5d7055" opacity=".22"/>
<polygon points="204.70,396.04 223.40,405.06 204.70,414.08 186.00,405.06" fill="#9d9274" />
<polygon points="186.00,405.06 204.70,414.08 204.70,398.10 186.00,389.08" fill="#c4bea6" />
<polygon points="223.40,405.06 204.70,414.08 204.70,398.10 223.40,389.08" fill="#dad5bd" />
<ellipse cx="204.70000000000002" cy="382.28" rx="12.65" ry="13.750000000000002" fill="url(#leaf)" />
<ellipse cx="348.85999999999996" cy="474.34" rx="9.88" ry="4.16" fill="#5d7055" opacity=".22"/>
<polygon points="348.86,463.77 366.54,472.30 348.86,480.83 331.18,472.30" fill="#9d9274" />
<polygon points="331.18,472.30 348.86,480.83 348.86,464.85 331.18,456.32" fill="#c4bea6" />
<polygon points="366.54,472.30 348.86,480.83 348.86,464.85 366.54,456.32" fill="#dad5bd" />
<ellipse cx="348.85999999999996" cy="449.52" rx="11.96" ry="13.0" fill="url(#leaf)" />
<ellipse cx="527.02" cy="460.56399999999996" rx="12.16" ry="5.12" fill="#5d7055" opacity=".22"/>
<polygon points="527.02,448.03 548.78,458.52 527.02,469.02 505.26,458.52" fill="#9d9274" />
<polygon points="505.26,458.52 527.02,469.02 527.02,453.04 505.26,442.54" fill="#c4bea6" />
<polygon points="548.78,458.52 527.02,469.02 527.02,453.04 548.78,442.54" fill="#dad5bd" />
<ellipse cx="527.02" cy="435.74399999999997" rx="14.72" ry="16.0" fill="url(#leaf)" />
<ellipse cx="116.29999999999995" cy="372.66" rx="34.0" ry="12.8" fill="#354831" opacity=".16" filter="url(#softShadow)"/>
<polyline points="123.10,360.78 123.10,247.90" fill="none" stroke="#77765a" stroke-width="4.5" />
<polyline points="123.10,291.83 110.18,257.85" fill="none" stroke="#77765a" stroke-width="2" />
<circle cx="103.89999999999996" cy="255.9" r="25.6" fill="url(#leaf)"/>
<circle cx="141.09999999999997" cy="251.9" r="28.799999999999997" fill="url(#leaf)"/>
<circle cx="123.09999999999997" cy="227.9" r="29.6" fill="url(#leaf2)"/>
<circle cx="118.29999999999997" cy="245.5" r="33.199999999999996" fill="url(#leaf)"/>
<ellipse cx="131.26" cy="401.964" rx="13" ry="8" fill="url(#leaf2)" />
<ellipse cx="155.06" cy="413.444" rx="13" ry="8" fill="url(#leaf2)" />
<ellipse cx="178.85999999999996" cy="424.924" rx="13" ry="8" fill="url(#leaf2)" />
<ellipse cx="202.65999999999997" cy="436.40399999999994" rx="13" ry="8" fill="url(#leaf2)" />
<ellipse cx="226.45999999999998" cy="447.88399999999996" rx="13" ry="8" fill="url(#leaf2)" />
<ellipse cx="250.26" cy="459.364" rx="13" ry="8" fill="url(#leaf2)" />
<ellipse cx="274.05999999999995" cy="470.844" rx="13" ry="8" fill="url(#leaf2)" />
<ellipse cx="297.85999999999996" cy="482.32399999999996" rx="13" ry="8" fill="url(#leaf2)" />
<polygon points="407.68,481.87 455.62,504.99 442.02,511.55 394.08,488.43" fill="#eeeade" stroke="#cbcdbf" stroke-width="0.6" stroke-linejoin="round" />
<polygon points="386.26,492.20 434.20,515.32 420.60,521.88 372.66,498.76" fill="#eeeade" stroke="#cbcdbf" stroke-width="0.6" stroke-linejoin="round" />
<polygon points="364.84,502.53 412.78,525.65 399.18,532.21 351.24,509.09" fill="#eeeade" stroke="#cbcdbf" stroke-width="0.6" stroke-linejoin="round" />
<polygon points="343.42,512.86 391.36,535.99 377.76,542.55 329.82,519.42" fill="#eeeade" stroke="#cbcdbf" stroke-width="0.6" stroke-linejoin="round" />
</svg>